<svg xmlns="http://www.w3.org/2000/svg" width="550" height="550" fill="none" viewBox="0 0 550 550"><rect width="550" height="550" fill="#000" rx="100"/><path fill="#f5f4f4" stroke="#f5f4f4" stroke-linejoin="round" stroke-width=".23" d="M316.663 54.167c-7.573.842-15.588.605-23.297.98-13.435.65-26.937 1.895-40.324 3.188-9.535.92-19.054 2.286-28.538 3.623-31.104 4.386-61.818 10.704-91.046 22.462-12.842 5.168-25.602 10.673-37.25 18.243C59.4 126.591 49.093 163.28 43.607 204.559c-1.961 14.759-3.342 29.401-4.3 44.255-.37 5.742-.896 11.307-.896 17.077 0 2.759-.268 5.467-.31 8.204a989 989 0 0 0 0 28.364c.537 37.36 4.967 88.587 19.26 123.257 4.331 10.503 10.161 20.486 17.495 29.169 14.662 17.37 34.734 28.317 56.395 34.412 20.942 5.896 42.707 7.072 64.324 7.564 22.182.504 44.142-.42 66.276-1.854 7.52-.489 15.068-.766 22.579-1.384 14.173-1.167 28.408-2.825 42.493-4.802 7.895-1.11 15.765-2.003 23.606-3.51 11.522-2.213 23.125-4.868 34.378-8.188 5.041-1.491 9.991-3.26 14.992-4.871 7.678-2.472 15.043-5.323 22.484-8.416 18.247-7.58 32.763-15.967 46.078-30.855 17.543-19.624 28.078-45.305 34.462-70.533 5.357-21.159 7.42-43.268 8.473-64.992.126-2.643.485-5.298.573-7.94.464-13.501.076-27.21-.573-40.686-.426-8.797-.631-17.591-1.369-26.378-.722-8.601-1.892-17.203-2.919-25.773-2.722-22.686-6.72-48.414-15.554-69.577-4.005-9.585-10.131-19.359-16.954-27.188-20.747-23.796-51.539-36.395-82.126-41.472-12.984-2.156-26.082-3.042-39.201-3.68-8.668-.419-17.203-.595-25.89-.595-3.44 0-7.33-.375-10.72 0Zm-4.099 21.125c1.895-.211 4.068 0 5.991 0h12.297c13.731 0 27.377.076 41.061 1.189 60.172 4.893 102.536 29.852 115.744 91.724 3.061 14.346 3.266 29.149 4.206 43.719 1.113 17.256 1.841 34.456 1.841 51.76 0 17.426.148 34.9-1.334 52.267-.744 8.721-2.118 17.471-3.534 26.104-5.133 31.265-13.754 62.13-35.821 85.884-13.344 14.369-30.969 24.424-49.465 30.622-24.599 8.242-50.504 9.109-76.069 11.584-39.636 3.838-79.44 7.155-119.281 7.155-20.375 0-41.078-.287-61.109-4.474-21.371-4.465-42.71-12.742-57.416-29.607-18.561-21.299-23.962-47.245-27.755-74.402-2.037-14.604-3.295-29.546-3.633-44.293-.296-12.968-.192-26.104-.006-39.078.04-2.737.309-5.446.309-8.204 0-9.466.77-18.959 1.226-28.412.874-17.931 2.431-35.661 5.25-53.396.549-3.453.92-6.953 1.592-10.389 1.993-10.213 4.888-20.429 8.659-30.124 10.338-26.567 25.463-44.432 52.298-55.219 14.091-5.662 29.424-8.242 44.297-10.88 20.387-3.62 40.838-6.285 61.449-8.236 6.23-.59 12.47-1.356 18.716-1.775 10.604-.716 21.217-1.713 31.83-2.223l19.233-.946c3.175-.155 6.341-.007 9.424-.35Z"/><path fill="#f5f4f4" stroke="#f5f4f4" stroke-linejoin="round" stroke-width=".23" d="M274.728 330.369c-1.258-5.247 10.44-46.577 12.559-54.901l26.084-104.124c.779-7.066-1.296-16.279-10.048-17.03-4.178-.359-9.015 2.264-11.862 5.184-3.03 3.102-5.625 6.936-8.138 10.465-2.708 3.796-5.489 7.548-8.198 11.351-10.329 14.494-20.554 29.067-30.77 43.64-6.69 9.548-13.797 18.808-20.598 28.273-9.232 12.852-18.436 25.729-27.545 38.669-4.777 6.788-9.68 13.507-14.245 20.437-4.799 7.29-9.601 14.615-14.274 21.986-4.036 6.366-8.1 12.697-12.173 19.041-2.11 3.282-4.818 8.759-7.807 11.111-.331.259-.41.123-.681.265 2.09-9.008 5.653-17.871 8.645-26.668 3.434-10.083 6.65-20.242 10.008-30.351 6.013-18.117 12.278-36.313 16.244-55.013 1.053-4.954 2.172-9.929 2.683-14.974.502-4.975.398-10.014.048-14.986-.628-8.948-4.988-18.852-13.53-22.73-5.912-2.686-17.338-1.523-20.324 5.171a6.5 6.5 0 0 0-.325.908c-.87 3.131 2.068 6.454 2.942 9.421 2.951 10.049 1.45 21.046-.565 31.136-2.686 13.444-6.867 26.845-10.777 39.986-5.744 19.3-11.486 38.596-17.111 57.93-2.935 10.1-5.924 20.205-8.34 30.443-2.424 10.275-11.12 37.322 3.109 42.244 3.516 1.214 7.467.98 10.607-1.098 6.482-4.294 16.582-23.6 21.021-31.003 21.374-35.629 44.533-70.069 68.395-104.074 9.736-13.877 19.217-28.005 29.317-41.626 7.018-9.466 14.257-18.751 21.326-28.176.899-1.204 2.608-3.982 4.049-4.426.337-.104.548.101.747.078-1.305 3.516-2.147 7.36-3.206 10.982l-6.117 20.999c-4.109 14.189-7.905 28.431-11.468 42.765-4.474 18.01-8.91 36.073-11.792 54.42-.706 4.493-1.11 8.967-1.665 13.47-1.075 8.699-.974 22.683 8.857 26.532 3.582 1.4 6.924.653 10.165-1.204.804-.463 1.482-.987 2.081-1.703 4.667-5.602 8.677-12.057 12.865-18.035 5.407-7.721 11.193-15.323 16.893-22.834 18.3-24.114 37.943-47.102 57.524-70.173 4.43-5.218 9.077-10.285 13.472-15.535l16.257-19.372c2.977-3.556 10.84-14.608 14.214-16.37-.567 3.793-2.683 8.04-4.011 11.754-2.809 7.864-5.643 15.749-8.119 23.726-11.773 37.922-27.1 95.095-12.094 133.152 3.282 8.327 8.301 16.487 15.553 21.967 5.36 4.048 11.619 7.431 18.067 9.364 3.951 1.186 8.324 2.043 12.432 2.387 4.616.388 27.116.227 26.933-7.009-.076-3.033-3.537-2.778-5.587-2.712-48.187 1.526-44.596-60.093-40.589-92.616 1.908-15.475 4.686-30.997 8.816-46.046 3.418-12.455 6.811-24.859 10.771-37.155 2.935-9.103 6.177-18.159 9.415-27.16 2.686-7.47 11.24-27.069 10.764-33.898-.599-8.658-9.714-10.916-16.228-6.565-7.05 4.708-12.083 13.066-17.209 19.681-5.556 7.164-11.108 14.315-16.714 21.437-23.295 29.607-49.131 57.057-73.349 85.879-7.624 9.074-15.405 18.032-23.014 27.119-3.184 3.802-10.865 13.788-14.39 16.194Z"/></svg>